<?xml version="1.0" encoding="UTF-8"?>
<svg width="137.561" height="137.522" xmlns="http://www.w3.org/2000/svg">
 <title>power button</title>
 <metadata>Tasto 10unsortedOpen Clip Art LibraryArchitetto Francesco RollandinArchitetto Francesco Rollandinimage/svg+xmlen</metadata>
 <defs>
  <linearGradient y2="1" x2="1" y1="0" x1="0" id="svg_1">
   <stop stop-color="#ff0000" offset="0"/>
   <stop stop-color="#ffff00" offset="1"/>
  </linearGradient>
 </defs>
 <g>
  <title>Layer 1</title>
  <path fill="#970F00" id="path5" d="m0.000234,68.735863c0,35.046997 27.489001,65.292992 62.415999,68.50399c34.939007,3.210999 67.633007,-21.357002 74.023998,-55.910004c6.391006,-34.546001 -15.169998,-69.343008 -49.025993,-78.836998c-33.867004,-9.49799 -70.463003,8.94101 -82.952003,41.818009c-2.958,7.785999 -4.462,16.097 -4.462,24.425003"/>
  <path fill="url(#XMLID_2_)" id="path12" d="m4.851501,68.759003c0,34.839996 29.089001,63.931992 63.928994,63.931992c34.839012,0 63.929008,-29.091995 63.929008,-63.931992c0,-34.838001 -29.089996,-63.928 -63.929008,-63.928c-34.838993,0.001 -63.928994,29.089999 -63.928994,63.928"/>
  <radialGradient r="63.9294" id="XMLID_2_" gradientUnits="userSpaceOnUse" cy="68.7383" cx="68.7954">
   <stop stop-color="#F28888" offset="0" id="stop8"/>
   <stop stop-color="#D82A2A" offset="1" id="stop10"/>
  </radialGradient>
  <path fill="#B20D0D" id="path14" d="m11.031,43.889c-5.166,30.106003 12.816999,60.348999 41.733,70.200996c30.668999,10.451004 65.179001,-4.994003 78.004997,-34.699997c-6.162994,35.951004 -43.127998,59.582993 -78.348999,50.078003c-36.364998,-9.813004 -56.376998,-50.904999 -41.388998,-85.579002"/>
  <path fill="#EF5656" id="path16" d="m28.865999,40.359001c8.843,1.828999 19.021002,-10.696001 26.687002,-13.884001c14.321999,-5.952 32.210999,-3.188 45.185997,4.917c13.724998,8.577002 23.487,25.046 24.987999,41.214003c0.00499,0.045998 0.00499,0.055 0.000999,0.023994c-1.014,-9.789997 -0.32901,-18.993988 -4.057999,-28.457996c-6.178001,-15.686001 -19.537994,-27.969992 -35.645996,-32.907001c-16.654999,-5.102 -34.868004,-1.854 -49.216003,7.87c-4.43,3.001999 -21.482999,18.421 -7.941999,21.224001"/>
  <g id="layer1">
   <path stroke="#ff0000" fill="#ffffff" fill-rule="evenodd" stroke-linecap="round" stroke-linejoin="bevel" stroke-miterlimit="4" stroke-dashoffset="0" stroke-opacity="0.841176" marker-start="none" marker-mid="none" marker-end="none" id="path8" d="m68.783417,113.30394c-22.764,0 -41.240808,-18.084839 -41.240808,-40.365158c0,-11.097084 4.601877,-21.131779 12.01668,-28.427071l0.034916,0.034172c1.498974,-2.02549 3.92004,-3.35474 6.668823,-3.35474c4.552731,0 8.251652,3.614666 8.251652,8.070751c0,2.732487 -1.39608,5.140461 -3.520618,6.601284l0.029091,0.028469c-4.455364,4.391884 -7.244938,10.388435 -7.244938,17.047134c0,13.432816 11.193459,24.337547 24.981911,24.337547c13.788452,0 24.97612,-10.904732 24.97612,-24.337547c0,-6.077072 -2.335243,-11.588139 -6.127663,-15.845345c-2.255943,-1.441063 -3.759201,-3.923504 -3.759201,-6.755058c0,-4.456085 3.698914,-8.076458 8.251656,-8.076454c2.225739,0 4.236069,0.8797 5.720291,2.283958l0.116364,-0.113922c7.458313,7.300819 12.080704,17.372963 12.080704,28.506821c0,22.280319 -18.471008,40.365158 -41.234978,40.365158zm-0.005821,-40.086075c-4.569237,0 -8.245838,-3.663879 -8.245838,-8.218849l0,-32.562111c0,-4.554964 3.676601,-8.218843 8.245838,-8.218843c4.569221,0 8.251663,3.663879 8.251663,8.218843l0,32.562111c0,4.55497 -3.682442,8.218849 -8.251663,8.218849z"/>
  </g>
 </g>
</svg>