<?xml version="1.0" encoding="UTF-8"?>
<!-- Generator: Adobe Illustrator 18.1.1, SVG Export Plug-In . SVG Version: 6.00 Build 0)  -->
<!DOCTYPE svg PUBLIC "-//W3C//DTD SVG 1.1//EN" "http://www.w3.org/Graphics/SVG/1.1/DTD/svg11.dtd">
<svg version="1.1" id="_x31_0" xmlns="http://www.w3.org/2000/svg" xmlns:xlink="http://www.w3.org/1999/xlink" x="0px" y="0px" viewBox="0 0 512 512" style="enable-background:new 0 0 512 512;" xml:space="preserve">
<style type="text/css">
	.st0{fill:#374149;}
</style>
<g>
	<path class="st0" d="M401.758,92.507c-5.648-21.223-16.859-40.672-32.442-56.25c-15.59-15.594-35.05-26.813-56.27-32.457   c-6.949-1.86-14.133-3.126-21.347-3.754c-3.309-0.293-6.622,0.832-9.086,3.082c-2.473,2.27-3.898,5.496-3.894,8.851v0.43   c0,3.195,1.242,6.195,3.5,8.454c1.977,1.973,4.594,3.195,7.375,3.438c5.774,0.515,11.546,1.538,17.16,3.023   c17.102,4.547,32.782,13.586,45.344,26.152c12.562,12.57,21.606,28.25,26.152,45.348c1.45,5.457,2.454,11.086,2.981,16.734   c0.266,2.89,1.543,5.61,3.59,7.656c2.352,2.348,5.473,3.641,8.79,3.637c3.347,0.004,6.566-1.41,8.835-3.886   c2.242-2.457,3.364-5.758,3.078-9.07C404.882,106.647,403.617,99.448,401.758,92.507z"/>
	<path class="st0" d="M357.16,108.007c-3.809-14.278-11.344-27.348-21.793-37.798c-10.454-10.453-23.528-17.992-37.801-21.797   c-3.25-0.867-6.598-1.55-9.946-2.019c-3.481-0.488-6.985,0.546-9.622,2.832c-2.609,2.266-4.109,5.547-4.109,9v0.418   c0,3.18,1.234,6.172,3.496,8.43c1.871,1.87,4.25,3.058,6.882,3.434c2.402,0.347,4.758,0.832,7.012,1.445   c10.141,2.688,19.426,8.039,26.863,15.477c7.434,7.434,12.786,16.718,15.473,26.859c0.621,2.328,1.11,4.688,1.438,7.02   c0.375,2.633,1.558,5.011,3.426,6.878c2.246,2.25,5.234,3.489,8.402,3.489h0.485c3.449,0,6.718-1.493,8.984-4.09   c2.286-2.629,3.321-6.133,2.832-9.606C358.71,114.612,358.031,111.257,357.16,108.007z"/>
	<path class="st0" d="M266.304,114.964H132.292c-14.281,0-25.859,11.578-25.859,25.859V462.59c0,27.29,22.121,49.41,49.41,49.41   h86.914c27.289,0,49.41-22.121,49.41-49.41V140.823C292.167,126.542,280.59,114.964,266.304,114.964z M233.777,411.867   l-12.602-12.61c2.938-4.254,4.645-9.422,4.645-15c0-5.554-1.707-10.722-4.645-14.996l12.621-12.622   c6.066,7.566,9.707,17.168,9.707,27.618c0,9.687-3.218,18.558-8.496,25.84C234.574,410.675,234.242,411.301,233.777,411.867z    M223.308,457.582v8.469c0,2.133-1.73,3.86-3.859,3.86H209.23c-2.133,0-3.863-1.727-3.863-3.86v-8.469   c0-2.133,1.73-3.859,3.863-3.859h10.219C221.578,453.722,223.308,455.449,223.308,457.582z M193.242,457.582v8.469   c0,2.133-1.726,3.86-3.859,3.86h-10.215c-2.133,0-3.863-1.727-3.863-3.86v-8.469c0-2.133,1.73-3.859,3.863-3.859h10.215   C191.515,453.722,193.242,455.449,193.242,457.582z M164.804,411.874c-6.062-7.566-9.703-17.16-9.703-27.617   c0-10.45,3.641-20.051,9.711-27.622l12.633,12.626c-2.934,4.274-4.664,9.442-4.664,14.996c0,5.578,1.73,10.746,4.664,15   l-11.461,11.461L164.804,411.874z M229.066,300.886c0-7.887,6.395-14.282,14.278-14.282c7.89,0,14.282,6.394,14.282,14.282   c0,7.886-6.391,14.278-14.282,14.278C235.461,315.164,229.066,308.773,229.066,300.886z M243.343,267.89   c-7.882,0-14.278-6.395-14.278-14.278c0-7.89,6.395-14.282,14.278-14.282c7.89,0,14.282,6.391,14.282,14.282   C257.625,261.495,251.234,267.89,243.343,267.89z M243.343,220.613c-7.882,0-14.278-6.391-14.278-14.278   c0-7.886,6.395-14.282,14.278-14.282c7.89,0,14.282,6.395,14.282,14.282C257.625,214.222,251.234,220.613,243.343,220.613z    M204.722,382.742l-7.325,7.329c-4.16,4.152-11.25,3.066-13.836-2.215c-1.258-2.625-1.766-5.676-1.164-8.883   c1.031-5.633,5.578-10.175,11.211-11.206c3.516-0.661,6.859,0,9.617,1.554C208.046,372.058,208.644,378.82,204.722,382.742z    M226.914,349.793l-12.614,12.61c-4.258-2.934-9.426-4.665-14.996-4.665c-5.558,0-10.73,1.731-15,4.665l-11.527-11.535   l-1.086-1.106c7.566-6.062,17.165-9.703,27.614-9.703c9.699,0,18.594,3.234,25.883,8.531   C225.75,349.015,226.362,349.339,226.914,349.793z M199.304,220.613c-7.882,0-14.278-6.391-14.278-14.278   c0-7.886,6.395-14.282,14.278-14.282c7.89,0,14.282,6.395,14.282,14.282C213.586,214.222,207.194,220.613,199.304,220.613z    M199.304,239.331c7.89,0,14.282,6.391,14.282,14.282c0,7.882-6.391,14.278-14.282,14.278c-7.882,0-14.278-6.395-14.278-14.278   C185.026,245.722,191.422,239.331,199.304,239.331z M199.304,286.605c7.89,0,14.282,6.394,14.282,14.282   c0,7.886-6.391,14.278-14.282,14.278c-7.882,0-14.278-6.391-14.278-14.278C185.026,292.999,191.422,286.605,199.304,286.605z    M155.269,239.331c7.886,0,14.282,6.391,14.282,14.282c0,7.882-6.395,14.278-14.282,14.278s-14.282-6.395-14.282-14.278   C140.987,245.722,147.382,239.331,155.269,239.331z M155.269,220.613c-7.886,0-14.282-6.391-14.282-14.278   c0-7.886,6.395-14.282,14.282-14.282s14.282,6.395,14.282,14.282C169.55,214.222,163.155,220.613,155.269,220.613z    M155.269,286.605c7.886,0,14.282,6.394,14.282,14.282c0,7.886-6.395,14.278-14.282,14.278s-14.282-6.391-14.282-14.278   C140.987,292.999,147.382,286.605,155.269,286.605z M161.53,142.315l-29.402,36.516c-1.89,2.348-5.679,1.012-5.679-2v-26.094   c0-7.52,6.094-13.614,13.613-13.614l18.981-0.004C161.726,137.12,163.21,140.23,161.53,142.315z M145.242,466.05v-8.469   c0-2.133,1.726-3.859,3.859-3.859h10.215c2.137,0,3.859,1.726,3.859,3.859v8.469c0,2.133-1.722,3.86-3.859,3.86h-10.215   C146.968,469.91,145.242,468.183,145.242,466.05z M171.702,418.734l12.602-12.598c4.27,2.93,9.442,4.64,15,4.64   c5.57,0,10.738-1.71,14.996-4.64l11.477,11.465l1.137,1.164c-7.562,6.058-17.16,9.691-27.61,9.691   c-9.695,0-18.586-3.226-25.875-8.523C172.862,419.511,172.254,419.187,171.702,418.734z M235.433,466.05v-8.469   c0-2.133,1.73-3.859,3.863-3.859h10.219c2.129,0,3.859,1.726,3.859,3.859v8.469c0,2.133-1.73,3.86-3.859,3.86h-10.219   C237.163,469.91,235.433,468.183,235.433,466.05z"/>
</g>
</svg>